<svg viewBox="0 0 340 260" xmlns="http://www.w3.org/2000/svg" xmlns:bx="https://boxy-svg.com">
  <defs>
    <bx:export>
      <bx:file format="svg" excluded="true"></bx:file>
    </bx:export>
  </defs>
  <rect style="fill-rule: nonzero; stroke: rgb(255, 255, 255); stroke-width: 0px; fill: rgb(230, 230, 230); transform-origin: 249.688px 205.227px;" transform="matrix(0.985765, -0.168131, 0.16314, 0.986616, -77.831916, -137.432801)" x="110.342" y="192.327" width="278.691" height="25.801" rx="12.015" ry="12.015"></rect>
  <rect style="fill-rule: nonzero; stroke: rgb(255, 255, 255); stroke-width: 0px; fill: rgb(230, 230, 230); transform-origin: 182.174px 205.227px;" transform="matrix(0.985765, -0.168131, 0.16314, 0.986616, 10.429543, -115.974055)" x="80.507" y="192.327" width="203.336" height="25.801" rx="12.015" ry="12.015"></rect>
  <rect style="fill-rule: nonzero; stroke: rgb(255, 255, 255); stroke-width: 0px; fill: rgb(230, 230, 230); transform-origin: 231.862px 205.227px;" transform="matrix(0.985765, -0.168131, 0.16314, 0.986616, -102.201054, -155.610408)" x="102.464" y="192.327" width="258.794" height="25.801" rx="12.015" ry="12.015"></rect>
  <rect style="fill-rule: nonzero; stroke: rgb(255, 255, 255); stroke-width: 0px; fill: rgb(230, 230, 230); transform-origin: 291.228px 205.227px;" transform="matrix(0.985765, -0.168131, 0.16314, 0.986616, -113.546488, -27.809602)" x="128.7" y="192.327" width="325.056" height="25.801" rx="12.015" ry="12.015"></rect>
  <rect style="fill-rule: nonzero; stroke: rgb(255, 255, 255); stroke-width: 0px; fill: rgb(230, 230, 230); transform-origin: 228.554px 205.227px;" transform="matrix(0.985765, -0.168131, 0.16314, 0.986616, -50.714188, -2.839044)" x="101.002" y="192.327" width="255.103" height="25.801" rx="12.015" ry="12.015"></rect>
  <rect style="fill-rule: nonzero; stroke: rgb(255, 255, 255); stroke-width: 0px; fill: rgb(230, 230, 230); transform-origin: 231.862px 205.227px;" transform="matrix(0.985765, -0.168131, 0.16314, 0.986616, -73.522724, -49.884953)" x="102.464" y="192.327" width="258.794" height="25.801" rx="12.015" ry="12.015"></rect>
  <g id="g2938" transform="matrix(1.212132, 0, 0, 1.287234, -1602.869263, -17118.109375)" style="">
    <g id="g2923" transform="matrix(1, 0, 0, 1, -88.077026, -4.644278)">
      <path style="color: rgb(0, 0, 0); font-style: normal; font-variant: normal; font-weight: normal; font-stretch: normal; font-size: medium; line-height: normal; font-family: sans-serif; font-feature-settings: normal; text-indent: 0px; text-align: start; text-decoration: none solid rgb(0, 0, 0); letter-spacing: normal; word-spacing: normal; text-transform: none; writing-mode: lr-tb; direction: ltr; text-orientation: mixed; dominant-baseline: auto; baseline-shift: baseline; text-anchor: start; white-space: normal; clip-rule: nonzero; display: inline; overflow: visible; visibility: visible; opacity: 1; isolation: auto; mix-blend-mode: normal; color-interpolation: srgb; color-interpolation-filters: linearrgb; vector-effect: none; fill: rgb(255, 255, 255); fill-opacity: 1; fill-rule: evenodd; stroke-width: 4.68925; stroke-linecap: butt; stroke-linejoin: miter; stroke-miterlimit: 4; stroke-dasharray: none; stroke-dashoffset: 0; stroke-opacity: 1; color-rendering: auto; image-rendering: auto; shape-rendering: auto; text-rendering: auto; paint-order: fill; stroke: rgb(167, 171, 176);" d="m 1484.9121,13327.59 h 120.5098 v 150.57 h -120.5098 z" id="path3310"></path>
    </g>
    <g id="g3330" transform="matrix(0.363994, 0, 0, 0.363994, 662.559143, 9263.273438)">
      <g transform="matrix(6.103682, 0, 0, 5.928513, 1904.565796, 10952.352539)">
        <g>
          <path d="M 68.066 63.636 L 25.648 63.636 C 25.096 63.636 24.648 63.189 24.648 62.636 C 24.648 62.083 25.096 61.636 25.648 61.636 L 68.066 61.636 C 68.619 61.636 69.066 62.083 69.066 62.636 C 69.066 63.189 68.619 63.636 68.066 63.636 Z" style="stroke: none; stroke-width: 1; stroke-dasharray: none; stroke-linecap: butt; stroke-linejoin: miter; stroke-miterlimit: 10; fill-rule: nonzero; opacity: 1; fill: rgb(156, 156, 156);" stroke-linecap="round"></path>
          <path d="M 54.048 57.677 L 25.325 57.677 C 24.951 57.677 24.648 57.23 24.648 56.677 C 24.648 56.124 24.951 55.677 25.325 55.677 L 54.048 55.677 C 54.422 55.677 54.725 56.124 54.725 56.677 C 54.725 57.23 54.422 57.677 54.048 57.677 Z" style="stroke: none; stroke-width: 1; stroke-dasharray: none; stroke-linecap: butt; stroke-linejoin: miter; stroke-miterlimit: 10; fill-rule: nonzero; opacity: 1; fill: rgb(156, 156, 156);" stroke-linecap="round"></path>
          <path d="M 58.96 69.595 L 25.438 69.595 C 25.002 69.595 24.648 69.148 24.648 68.595 C 24.648 68.042 25.002 67.595 25.438 67.595 L 58.96 67.595 C 59.397 67.595 59.75 68.042 59.75 68.595 C 59.75 69.148 59.397 69.595 58.96 69.595 Z" style="stroke: none; stroke-width: 1; stroke-dasharray: none; stroke-linecap: butt; stroke-linejoin: miter; stroke-miterlimit: 10; fill-rule: nonzero; opacity: 1; fill: rgb(156, 156, 156);" stroke-linecap="round"></path>
          <path d="M 50.623 51.718 L 25.246 51.718 C 24.916 51.718 24.648 51.271 24.648 50.718 C 24.648 50.165 24.916 49.718 25.246 49.718 L 50.623 49.718 C 50.953 49.718 51.221 50.165 51.221 50.718 C 51.221 51.271 50.953 51.718 50.623 51.718 Z" style="stroke: none; stroke-width: 1; stroke-dasharray: none; stroke-linecap: butt; stroke-linejoin: miter; stroke-miterlimit: 10; fill-rule: nonzero; opacity: 1; fill: rgb(156, 156, 156);" stroke-linecap="round"></path>
          <path d="M 56.366 45.759 L 25.378 45.759 C 24.975 45.759 24.648 45.312 24.648 44.759 C 24.648 44.206 24.975 43.759 25.378 43.759 L 56.366 43.759 C 56.77 43.759 57.097 44.206 57.097 44.759 C 57.097 45.312 56.77 45.759 56.366 45.759 Z" style="stroke: none; stroke-width: 1; stroke-dasharray: none; stroke-linecap: butt; stroke-linejoin: miter; stroke-miterlimit: 10; fill-rule: nonzero; opacity: 1; fill: rgb(156, 156, 156);" stroke-linecap="round"></path>
          <path d="M 54.048 75.556 L 25.325 75.556 C 24.951 75.556 24.648 75.109 24.648 74.556 C 24.648 74.003 24.951 73.556 25.325 73.556 L 54.048 73.556 C 54.422 73.556 54.725 74.003 54.725 74.556 C 54.725 75.109 54.422 75.556 54.048 75.556 Z" style="stroke: none; stroke-width: 1; stroke-dasharray: none; stroke-linecap: butt; stroke-linejoin: miter; stroke-miterlimit: 10; fill-rule: nonzero; opacity: 1; fill: rgb(156, 156, 156);" stroke-linecap="round"></path>
          <path d="M 50.623 98.363 L 25.246 98.363 C 24.916 98.363 24.648 97.916 24.648 97.363 C 24.648 96.81 24.916 96.363 25.246 96.363 L 50.623 96.363 C 50.953 96.363 51.221 96.81 51.221 97.363 C 51.221 97.916 50.953 98.363 50.623 98.363 Z" style="stroke: none; stroke-width: 1; stroke-dasharray: none; stroke-linecap: butt; stroke-linejoin: miter; stroke-miterlimit: 10; fill-rule: nonzero; opacity: 1; fill: rgb(156, 156, 156);" stroke-linecap="round"></path>
          <path d="M 56.366 92.082 L 25.378 92.082 C 24.975 92.082 24.648 91.635 24.648 91.082 C 24.648 90.529 24.975 90.082 25.378 90.082 L 56.366 90.082 C 56.77 90.082 57.097 90.529 57.097 91.082 C 57.097 91.635 56.77 92.082 56.366 92.082 Z" style="stroke: none; stroke-width: 1; stroke-dasharray: none; stroke-linecap: butt; stroke-linejoin: miter; stroke-miterlimit: 10; fill-rule: nonzero; opacity: 1; fill: rgb(156, 156, 156);" stroke-linecap="round"></path>
          <path d="M 50.623 39.8 L 25.246 39.8 C 24.916 39.8 24.648 39.353 24.648 38.8 C 24.648 38.247 24.916 37.8 25.246 37.8 L 50.623 37.8 C 50.953 37.8 51.221 38.247 51.221 38.8 C 51.221 39.353 50.953 39.8 50.623 39.8 Z" style="stroke: none; stroke-width: 1; stroke-dasharray: none; stroke-linecap: butt; stroke-linejoin: miter; stroke-miterlimit: 10; fill-rule: nonzero; opacity: 1; fill: rgb(156, 156, 156);" stroke-linecap="round"></path>
        </g>
      </g>
    </g>
  </g>
  <text style="fill: rgb(74, 74, 74); font-family: Consolas; font-size: 34px; font-weight: 700; stroke-miterlimit: 10; stroke-width: 0px; white-space: pre;" transform="matrix(0.654152, 0, 0, 0.636825, 32.885338, 81.614098)" x="114.293" y="147.365">KwirthLog</text>
</svg>